<svg width="42" height="29" viewBox="0 0 42 29" fill="none" xmlns="http://www.w3.org/2000/svg">
<path d="M36.7871 24.1769L36.8611 24.1866L41.9112 2.6965C39.621 2.15289 38.6399 4.54926 38.6399 4.54926C37.4401 4.1118 36.459 5.42096 37.3307 8.69224C38.2024 11.9635 36.2403 13.4882 34.0595 13.9256C31.8786 14.3631 31.4444 9.89203 31.4444 9.89203C31.4444 9.89203 29.1413 14.1637 25.1945 12.0118C21.9072 10.2201 26.6484 7.05821 26.211 4.76799C25.7735 2.47777 24.1395 3.5682 24.1395 3.5682C23.702 1.27798 21.3057 0.734375 21.3057 0.734375V24.1769H36.7871Z" fill="#CECECE"/>
<path d="M36.7741 24.8203H21.3215V28.0948H36.7741V24.8203Z" fill="#CECECE"/>
<path d="M21.3089 24.1769V0.734375C21.3089 0.734375 18.9093 1.27798 18.4751 3.5682C18.4751 3.5682 16.8378 2.47777 16.4036 4.76799C15.9661 7.05821 20.7106 10.2201 17.42 12.0118C13.4733 14.1637 11.1702 9.89203 11.1702 9.89203C11.1702 9.89203 10.7327 14.3631 8.55508 13.9256C6.37423 13.4914 4.41211 11.9635 5.28381 8.69224C6.15551 5.42096 5.17444 4.11502 3.97465 4.54926C3.97465 4.54926 2.99359 2.14968 0.703369 2.6965L5.75343 24.1866L5.82741 24.1769H21.3089Z" fill="#C8C7C7" fill-opacity="0.858824"/>
<path d="M21.3218 24.8203H5.84351V28.0948H21.3218V24.8203Z" fill="#C8C7C7" fill-opacity="0.858824"/>
</svg>
