<svg width="42" height="29" viewBox="0 0 42 29" fill="none" xmlns="http://www.w3.org/2000/svg">
<path d="M36.7874 24.1769L36.8614 24.1866L41.9114 2.6965C39.6212 2.15289 38.6401 4.54926 38.6401 4.54926C37.4404 4.1118 36.4593 5.42096 37.331 8.69224C38.2027 11.9635 36.2406 13.4882 34.0597 13.9256C31.8789 14.3631 31.4446 9.89203 31.4446 9.89203C31.4446 9.89203 29.1415 14.1637 25.1948 12.0118C21.9074 10.2201 26.6487 7.05821 26.2112 4.76799C25.7738 2.47777 24.1397 3.5682 24.1397 3.5682C23.7023 1.27798 21.3059 0.734375 21.3059 0.734375V24.1769H36.7874Z" fill="#B87333"/>
<path d="M36.7741 24.8203H21.3215V28.0948H36.7741V24.8203Z" fill="#B87333"/>
<path d="M21.3089 24.1769V0.734375C21.3089 0.734375 18.9093 1.27798 18.4751 3.5682C18.4751 3.5682 16.8378 2.47777 16.4036 4.76799C15.9661 7.05821 20.7106 10.2201 17.42 12.0118C13.4733 14.1637 11.1702 9.89203 11.1702 9.89203C11.1702 9.89203 10.7327 14.3631 8.55508 13.9256C6.37423 13.4914 4.41211 11.9635 5.28381 8.69224C6.15551 5.42096 5.17444 4.11502 3.97465 4.54926C3.97465 4.54926 2.99359 2.14968 0.703369 2.6965L5.75343 24.1866L5.82741 24.1769H21.3089Z" fill="#985416" fill-opacity="0.858824"/>
<path d="M21.3218 24.8203H5.84351V28.0948H21.3218V24.8203Z" fill="#985416" fill-opacity="0.858824"/>
</svg>
