<svg width="42" height="28" viewBox="0 0 42 28" fill="none" xmlns="http://www.w3.org/2000/svg">
<path d="M36.084 23.4426L36.158 23.4522L41.2081 1.96212C38.9178 1.41852 37.9368 3.81488 37.9368 3.81488C36.737 3.37743 35.7559 4.68658 36.6276 7.95786C37.4993 11.2291 35.5372 12.7538 33.3563 13.1913C31.1755 13.6287 30.7412 9.15765 30.7412 9.15765C30.7412 9.15765 28.4382 13.4293 24.4914 11.2774C21.204 9.48575 25.9453 6.32383 25.5078 4.03361C25.0704 1.7434 23.4364 2.83382 23.4364 2.83382C22.9989 0.543605 20.6025 0 20.6025 0V23.4426H36.084Z" fill="#B87333"/>
<path d="M36.0707 24.0859H20.6182V27.3604H36.0707V24.0859Z" fill="#B87333"/>
<path d="M20.6055 23.4426V0C20.6055 0 18.2059 0.543605 17.7717 2.83382C17.7717 2.83382 16.1345 1.7434 15.7002 4.03361C15.2628 6.32383 20.0072 9.48575 16.7167 11.2774C12.7699 13.4293 10.4668 9.15765 10.4668 9.15765C10.4668 9.15765 10.0294 13.6287 7.85171 13.1913C5.67086 12.757 3.70874 11.2291 4.58044 7.95786C5.45214 4.68658 4.47107 3.38064 3.27128 3.81488C3.27128 3.81488 2.29022 1.4153 0 1.96212L5.05006 23.4522L5.12404 23.4426H20.6055Z" fill="#985416" fill-opacity="0.858824"/>
<path d="M20.6184 24.0859H5.14014V27.3604H20.6184V24.0859Z" fill="#985416" fill-opacity="0.858824"/>
</svg>
