<svg width="131" height="122" viewBox="0 0 131 122" fill="none" xmlns="http://www.w3.org/2000/svg">
<path d="M29.0709 122C27.6841 122 26.3098 121.565 25.1401 120.71C23.1298 119.239 22.1827 116.919 22.6086 114.501L28.4902 81.1035C28.7971 79.3618 28.2026 77.5856 26.9043 76.3512L1.99102 52.698C0.203302 51.0016 -0.442382 48.5051 0.306994 46.186C1.07158 43.8174 3.10817 42.1251 5.62729 41.7691L40.0544 36.8971C41.8573 36.6414 43.4127 35.5403 44.2174 33.9525L59.6142 3.56599C60.73 1.36646 62.985 0 65.5 0C68.015 0 70.27 1.36646 71.3858 3.56599L86.7826 33.9525C87.5873 35.5403 89.1427 36.6414 90.9456 36.8971L125.373 41.7691C127.89 42.1251 129.928 43.8174 130.693 46.186C131.442 48.5065 130.797 51.0016 129.009 52.698L104.096 76.3512C102.797 77.5856 102.203 79.3618 102.51 81.1035L108.391 114.501C108.817 116.917 107.87 119.239 105.86 120.71C103.814 122.206 101.134 122.418 98.8694 121.257L68.0772 105.488C66.4651 104.662 64.5363 104.66 62.9242 105.488L32.132 121.257C31.16 121.755 30.112 122 29.0709 122ZM65.5 103.838C66.548 103.838 67.596 104.083 68.5514 104.572L99.3436 120.342C101.256 121.322 103.519 121.143 105.245 119.88C106.931 118.647 107.725 116.703 107.37 114.679L101.488 81.2822C101.122 79.2023 101.828 77.0798 103.379 75.6074L128.293 51.9543C129.814 50.5108 130.34 48.4721 129.704 46.5022C129.063 44.513 127.347 43.0915 125.226 42.7905L90.7991 37.9185C88.6602 37.6161 86.813 36.3074 85.8562 34.4171L70.4594 4.02926C69.5082 2.15141 67.6541 1.02966 65.5 1.02966C63.3459 1.02966 61.4932 2.15141 60.5406 4.02926L45.1438 34.4158C44.187 36.3046 42.3398 37.6133 40.2009 37.9158L5.77385 42.7877C3.65292 43.0888 1.9371 44.5102 1.29556 46.4994C0.659561 48.4694 1.18772 50.5081 2.70859 51.9515L27.6219 75.6047C29.1732 77.077 29.8797 79.1995 29.5133 81.2795L23.6317 114.677C23.2764 116.7 24.07 118.644 25.7568 119.877C27.4823 121.14 29.7456 121.319 31.6578 120.339L62.45 104.57C63.404 104.083 64.452 103.838 65.5 103.838Z" fill="#707070"/>
</svg>
