<svg width="43" height="40" viewBox="0 0 43 40" fill="none" xmlns="http://www.w3.org/2000/svg">
<path d="M23.1464 1.08544L28.2082 11.1326C28.4977 11.7076 29.0577 12.1058 29.705 12.1981L41.0231 13.8094C42.6535 14.0417 43.3048 16.0044 42.1249 17.1312L33.9349 24.952C33.4663 25.3993 33.2527 26.0443 33.3631 26.6757L35.2963 37.7187C35.5749 39.3096 33.8704 40.5228 32.4118 39.7719L22.2887 34.5583C21.7096 34.2601 21.0178 34.2601 20.4387 34.5583L10.3156 39.7719C8.85698 40.5233 7.15245 39.3096 7.43109 37.7187L9.36425 26.6757C9.4747 26.0439 9.26107 25.3993 8.79244 24.952L0.602512 17.1312C-0.577477 16.0044 0.0738809 14.0412 1.70432 13.8094L13.0224 12.1981C13.6701 12.1058 14.2297 11.7076 14.5192 11.1326L19.581 1.08544C20.3101 -0.361815 22.4173 -0.361815 23.1464 1.08544Z" fill="#F2C504"/>
<path d="M16.7182 12.2726C16.6496 12.2726 16.5796 12.2572 16.5141 12.2244C16.29 12.1113 16.2 11.8376 16.3128 11.6135L19.7477 4.7954C19.8605 4.57131 20.1336 4.48132 20.3586 4.59404C20.5827 4.70722 20.6727 4.98085 20.56 5.20494L17.125 12.0231C17.045 12.1812 16.8846 12.2726 16.7182 12.2726Z" fill="#FFDA40"/>
<path d="M14.5486 14.5453C14.3773 14.5453 14.2132 14.448 14.1364 14.2826C14.0305 14.0549 14.1286 13.7844 14.3564 13.679C14.5968 13.5667 14.825 13.4303 15.0345 13.2726C15.235 13.1226 15.5195 13.1626 15.6709 13.3631C15.8214 13.5635 15.7809 13.8485 15.5805 13.9994C15.3209 14.1944 15.0382 14.364 14.7396 14.5021C14.6777 14.5317 14.6123 14.5453 14.5486 14.5453Z" fill="#FFDA40"/>
<path d="M33.9363 24.9498C33.4682 25.3998 33.2545 26.0452 33.3636 26.677L35.2954 37.7178C35.5772 39.3087 33.8682 40.5223 32.4136 39.7723L22.291 34.5588C21.7092 34.2588 21.0183 34.2588 20.4365 34.5588L16.6138 36.5269C21.041 33.0906 28.2591 25.8407 32.9318 12.659L41.0226 13.809C42.6544 14.0408 43.3044 16.0044 42.1226 17.1316L33.9363 24.9498Z" fill="#EAAE06"/>
</svg>
