<svg width="88" height="88" viewBox="0 0 88 88" fill="none" xmlns="http://www.w3.org/2000/svg">
<path d="M43.7 87.9569C67.6066 87.9569 87.4002 67.9942 87.4002 43.9784C87.4002 19.9197 67.5638 0 43.6572 0C19.7936 0 0 19.9197 0 43.9784C0 67.9942 19.8364 87.9569 43.7 87.9569ZM43.7 80.6271C23.4781 80.6271 7.32618 64.3293 7.32618 43.9784C7.32618 23.6276 23.4353 7.32974 43.6572 7.32974C63.8793 7.32974 80.1168 23.6276 80.1168 43.9784C80.1168 64.3293 63.9221 80.6271 43.7 80.6271ZM73.0049 72.3919L72.8763 71.9178C70.7769 65.5796 59.4664 58.6379 43.7 58.6379C27.9767 58.6379 16.666 65.5796 14.5239 71.8745L14.3953 72.3919C22.1072 80.0666 35.3457 84.5507 43.7 84.5507C52.0974 84.5507 65.2074 80.1097 73.0049 72.3919ZM43.7 51.3081C51.9689 51.3945 58.3954 44.3234 58.3954 35.0533C58.3954 26.344 51.9259 19.1435 43.7 19.1435C35.4741 19.1435 28.962 26.344 29.0048 35.0533C29.0476 44.3234 35.4741 51.2219 43.7 51.3081Z" fill="white" fill-opacity="0.85"/>
</svg>
