<svg width="43" height="40" viewBox="0 0 43 40" fill="none" xmlns="http://www.w3.org/2000/svg">
<path d="M9.54235 39.9999C9.08716 39.9999 8.63604 39.8575 8.2521 39.5771C7.59222 39.0948 7.28135 38.334 7.42113 37.5412L9.35174 26.5913C9.4525 26.0203 9.25735 25.4379 8.83119 25.0332L0.653541 17.278C0.0667326 16.7218 -0.145209 15.9033 0.100769 15.1429C0.35174 14.3664 1.02024 13.8115 1.84713 13.6948L13.1476 12.0974C13.7394 12.0136 14.25 11.6525 14.5141 11.132L19.568 1.16918C19.9343 0.44802 20.6745 0 21.5 0C22.3255 0 23.0657 0.44802 23.432 1.16918L28.4859 11.132C28.75 11.6525 29.2606 12.0136 29.8524 12.0974L41.1529 13.6948C41.9793 13.8115 42.6483 14.3664 42.8992 15.1429C43.1452 15.9038 42.9333 16.7218 42.3465 17.278L34.1688 25.0332C33.7427 25.4379 33.5475 26.0203 33.6483 26.5913L35.5789 37.5412C35.7187 38.3336 35.4078 39.0948 34.7479 39.5771C34.0762 40.0675 33.1967 40.1369 32.4533 39.7565L22.3459 34.5862C21.8168 34.3154 21.1837 34.3149 20.6545 34.5862L10.5471 39.7565C10.2281 39.9197 9.88409 39.9999 9.54235 39.9999ZM21.5 34.0454C21.844 34.0454 22.188 34.1256 22.5016 34.2861L32.609 39.4563C33.2366 39.7777 33.9796 39.7191 34.5459 39.3049C35.0996 38.9006 35.3601 38.2632 35.2435 37.5998L33.3129 26.6499C33.1926 25.968 33.4245 25.2721 33.9337 24.7893L42.1114 17.0342C42.6106 16.5609 42.7835 15.8925 42.5747 15.2466C42.3642 14.5944 41.8009 14.1284 41.1048 14.0297L29.8043 12.4323C29.1022 12.3331 28.4959 11.904 28.1818 11.2843L23.1279 1.32107C22.8157 0.705382 22.2071 0.337592 21.5 0.337592C20.7929 0.337592 20.1848 0.705382 19.8721 1.32107L14.8182 11.2839C14.5041 11.9031 13.8978 12.3322 13.1957 12.4314L1.89523 14.0288C1.19905 14.1275 0.635841 14.5935 0.425261 15.2457C0.216497 15.8916 0.389862 16.56 0.88908 17.0333L9.06673 24.7884C9.57594 25.2711 9.80785 25.9671 9.68758 26.649L7.75697 37.5989C7.64033 38.2623 7.90083 38.8997 8.45451 39.304C9.0209 39.7182 9.76383 39.7768 10.3915 39.4554L20.4988 34.2852C20.812 34.1256 21.156 34.0454 21.5 34.0454Z" fill="white"/>
</svg>
